[Header]
FileType HTR
DataType HTRS
FileVersion 1
NumSegments 64
NumFrames 3
DataFrameRate 30
EulerRotationOrder ZYX
CalibrationUnits mm
RotationUnits Degrees
GlobalAxisofGravity Y
BoneLengthAxis Y
ScaleFactor 1.0
[SegmentNames&Hierarchy]
Hips	GLOBAL
Spine	Hips
Spine1	Spine
Spine2	Spine1
Neck	Spine2
Head	Neck
LeftEye	Head
RightEye	Head
LeftShoulder	Spine2
LeftArm	LeftShoulder
LeftForeArm	LeftArm
LeftHand	LeftForeArm
LeftHandThumb1	LeftHand
LeftHandThumb2	LeftHandThumb1
LeftHandThumb3	LeftHandThumb2
LeftHandThumb4	LeftHandThumb3
LeftHandIndex1	LeftHand
LeftHandIndex2	LeftHandIndex1
LeftHandIndex3	LeftHandIndex2
LeftHandIndex4	LeftHandIndex3
LeftHandMiddle1	LeftHand
LeftHandMiddle2	LeftHandMiddle1
LeftHandMiddle3	LeftHandMiddle2
LeftHandMiddle4	LeftHandMiddle3
LeftHandRing1	LeftHand
LeftHandRing2	LeftHandRing1
LeftHandRing3	LeftHandRing2
LeftHandRing4	LeftHandRing3
LeftHandPinky1	LeftHand
LeftHandPinky2	LeftHandPinky1
LeftHandPinky3	LeftHandPinky2
LeftHandPinky4	LeftHandPinky3
RightShoulder	Spine2
RightArm	RightShoulder
RightForeArm	RightArm
RightHand	RightForeArm
RightHandPinky1	RightHand
RightHandPinky2	RightHandPinky1
RightHandPinky3	RightHandPinky2
RightHandPinky4	RightHandPinky3
RightHandRing1	RightHand
RightHandRing2	RightHandRing1
RightHandRing3	RightHandRing2
RightHandRing4	RightHandRing3
RightHandMiddle1	RightHand
RightHandMiddle2	RightHandMiddle1
RightHandMiddle3	RightHandMiddle2
RightHandMiddle4	RightHandMiddle3
RightHandIndex1	RightHand
RightHandIndex2	RightHandIndex1
RightHandIndex3	RightHandIndex2
RightHandIndex4	RightHandIndex3
RightHandThumb1	RightHand
RightHandThumb2	RightHandThumb1
RightHandThumb3	RightHandThumb2
RightHandThumb4	RightHandThumb3
LeftUpLeg	Hips
LeftLeg	LeftUpLeg
LeftFoot	LeftLeg
LeftToeBase	LeftFoot
RightUpLeg	Hips
RightLeg	RightUpLeg
RightFoot	RightLeg
RightToeBase	RightFoot
[BasePosition]
Hips	0	0	0	0	0	0	1
Spine	0	0	0	0	0	0	1
Spine1	0	0	0	0	0	0	1
Spine2	0	0	0	0	0	0	1
Neck	0	0	0	0	0	0	1
Head	0	0	0	0	0	0	1
LeftEye	0	0	0	0	0	0	1
RightEye	0	0	0	0	0	0	1
LeftShoulder	0	0	0	0	0	0	1
LeftArm	0	0	0	0	0	0	1
LeftForeArm	0	0	0	0	0	0	1
LeftHand	0	0	0	0	0	0	1
LeftHandThumb1	0	0	0	0	0	0	1
LeftHandThumb2	0	0	0	0	0	0	1
LeftHandThumb3	0	0	0	0	0	0	1
LeftHandThumb4	0	0	0	0	0	0	1
LeftHandIndex1	0	0	0	0	0	0	1
LeftHandIndex2	0	0	0	0	0	0	1
LeftHandIndex3	0	0	0	0	0	0	1
LeftHandIndex4	0	0	0	0	0	0	1
LeftHandMiddle1	0	0	0	0	0	0	1
LeftHandMiddle2	0	0	0	0	0	0	1
LeftHandMiddle3	0	0	0	0	0	0	1
LeftHandMiddle4	0	0	0	0	0	0	1
LeftHandRing1	0	0	0	0	0	0	1
LeftHandRing2	0	0	0	0	0	0	1
LeftHandRing3	0	0	0	0	0	0	1
LeftHandRing4	0	0	0	0	0	0	1
LeftHandPinky1	0	0	0	0	0	0	1
LeftHandPinky2	0	0	0	0	0	0	1
LeftHandPinky3	0	0	0	0	0	0	1
LeftHandPinky4	0	0	0	0	0	0	1
RightShoulder	0	0	0	0	0	0	1
RightArm	0	0	0	0	0	0	1
RightForeArm	0	0	0	0	0	0	1
RightHand	0	0	0	0	0	0	1
RightHandPinky1	0	0	0	0	0	0	1
RightHandPinky2	0	0	0	0	0	0	1
RightHandPinky3	0	0	0	0	0	0	1
RightHandPinky4	0	0	0	0	0	0	1
RightHandRing1	0	0	0	0	0	0	1
RightHandRing2	0	0	0	0	0	0	1
RightHandRing3	0	0	0	0	0	0	1
RightHandRing4	0	0	0	0	0	0	1
RightHandMiddle1	0	0	0	0	0	0	1
RightHandMiddle2	0	0	0	0	0	0	1
RightHandMiddle3	0	0	0	0	0	0	1
RightHandMiddle4	0	0	0	0	0	0	1
RightHandIndex1	0	0	0	0	0	0	1
RightHandIndex2	0	0	0	0	0	0	1
RightHandIndex3	0	0	0	0	0	0	1
RightHandIndex4	0	0	0	0	0	0	1
RightHandThumb1	0	0	0	0	0	0	1
RightHandThumb2	0	0	0	0	0	0	1
RightHandThumb3	0	0	0	0	0	0	1
RightHandThumb4	0	0	0	0	0	0	1
LeftUpLeg	0	0	0	0	0	0	1
LeftLeg	0	0	0	0	0	0	1
LeftFoot	0	0	0	0	0	0	1
LeftToeBase	0	0	0	0	0	0	1
RightUpLeg	0	0	0	0	0	0	1
RightLeg	0	0	0	0	0	0	1
RightFoot	0	0	0	0	0	0	1
RightToeBase	0	0	0	0	0	0	1
[Hips]
3	24.65791702	1026.045654	2.115887642	-3.404721498	1.929176211	-3.350846291	1.0
4	44.00917435	1022.791809	-5.161295891	-3.005028009	-0.1241048127	-3.344733	1.0
5	64.24208069	1022.406311	-11.26555443	-2.602633953	-2.171273947	-3.418202877	1.0
[Spine]
3	0	101.8159943	1.315000057	3.597026825	0.9969841242	2.250680208	1.0
4	0	101.8159943	1.315000057	3.719232082	0.8247988224	2.235911369	1.0
5	0	101.8159943	1.315000057	3.811081409	0.6223694682	2.626032591	1.0
[Spine1]
3	0	100.8349991	-10.00800037	1.353877783	0.02963622473	1.422415733	1.0
4	0	100.8349991	-10.00800037	1.460577726	-0.1167069674	1.215406299	1.0
5	0	100.8349991	-10.00800037	1.554175496	-0.3107729852	0.9650995731	1.0
[Spine2]
3	0	91	-13.73399925	1.320821643	0.05366411805	1.596536636	1.0
4	0	91	-13.73399925	1.423703313	-0.08125643432	1.584704757	1.0
5	0	91	-13.73399925	1.512928486	-0.2567180097	1.587836027	1.0
[Neck]
3	0	166.7169952	-25.16200066	5.666806221	-2.166810036	1.172234893	1.0
4	0	166.7169952	-25.16200066	6.068964005	-3.868337154	1.641831279	1.0
5	0	166.7169952	-25.16200066	6.607788563	-5.691932678	2.028374195	1.0
[Head]
3	0	96.17900085	16.84999847	-7.845018387	-3.98169899	1.890885353	1.0
4	0	96.17900085	16.84999847	-7.362812519	-7.902302265	3.347535372	1.0
5	0	96.17900085	16.84999847	-6.431142807	-12.119977	4.679165363	1.0
[LeftEye]
3	30.6760006	64.09500122	92.83599854	0	0	0	1.0
4	30.6760006	64.09500122	92.83599854	0	0	0	1.0
5	30.6760006	64.09500122	92.83599854	0	0	0	1.0
[RightEye]
3	-30.6760006	64.09500122	92.83499908	0	0	0	1.0
4	-30.6760006	64.09500122	92.83499908	0	0	0	1.0
5	-30.6760006	64.09500122	92.83499908	0	0	0	1.0
[LeftShoulder]
3	45.70400238	109.4599991	-26.28000069	4.894515038	-16.89014435	-12.72958755	1.0
4	45.70400238	109.4599991	-26.28000069	4.876718044	-16.85782242	-12.54777908	1.0
5	45.70400238	109.4599991	-26.28000069	4.853351593	-16.78273964	-12.44690514	1.0
[LeftArm]
3	105.923996	-5.24600029	-22.32099915	20.27740669	-1.921894908	-69.90283203	1.0
4	105.923996	-5.24600029	-22.32099915	19.92210197	-1.151224375	-69.10176086	1.0
5	105.923996	-5.24600029	-22.32099915	19.49848747	-0.3251051307	-68.18858337	1.0
[LeftForeArm]
3	278.414978	-0.0009999999311	0	-5.031434284e-06	-2.223364353	-0.0002092024515	1.0
4	278.414978	-0.0009999999311	0	-8.560548849e-06	-2.777222157	-0.0002142782178	1.0
5	278.414978	-0.0009999999311	0	-7.28745681e-06	-3.366412163	-0.0002140368888	1.0
[LeftHand]
3	283.2879944	0	0	-33.76049423	-4.036061287	-4.229572773	1.0
4	283.2879944	0	0	-34.3024826	-3.353547573	-4.068654537	1.0
5	283.2879944	0	0	-34.88794327	-2.348158836	-3.903320789	1.0
[LeftHandThumb1]
3	24.6609993	-15.75	26.8239994	-0.4889863729	2.201392412	4.818544865	1.0
4	24.6609993	-15.75	26.8239994	-0.4889863729	2.201392412	4.818544865	1.0
5	24.6609993	-15.75	26.8239994	-0.4889863729	2.201392412	4.818544865	1.0
[LeftHandThumb2]
3	32.29800034	-18.64699936	18.64699936	19.90674973	19.99986458	23.23900795	1.0
4	32.29800034	-18.64699936	18.64699936	19.98907471	20.09436798	23.23809433	1.0
5	32.29800034	-18.64699936	18.64699936	20.04702187	20.14325714	23.23613739	1.0
[LeftHandThumb3]
3	26.52600098	-15.31499958	15.31499958	-13.14496136	5.554161549	7.973925591	1.0
4	26.52600098	-15.31499958	15.31499958	-13.14945984	5.543052673	7.973432541	1.0
5	26.52600098	-15.31499958	15.31499958	-13.15146732	5.538097382	7.973214149	1.0
[LeftHandThumb4]
3	19.54599953	-11.28499985	11.28499985	0	0	0	1.0
4	19.54599953	-11.28499985	11.28499985	0	0	0	1.0
5	19.54599953	-11.28499985	11.28499985	0	0	0	1.0
[LeftHandIndex1]
3	91.09299469	-5.170999527	22.60099792	0.1190262362	-0.9822165966	-7.709927559	1.0
4	91.09299469	-5.170999527	22.60099792	0.1150802597	-0.9644229412	-7.820689201	1.0
5	91.09299469	-5.170999527	22.60099792	0.1143701598	-0.9542641044	-7.903676987	1.0
[LeftHandIndex2]
3	36.76399994	0	0	-0.2660706341	1.743156552	-17.35574341	1.0
4	36.76399994	0	0	-0.265560776	1.741526127	-17.33897018	1.0
5	36.76399994	0	0	-0.2659652531	1.74281919	-17.35225105	1.0
[LeftHandIndex3]
3	28.83100128	0	0	-0.05713482574	0.8152467608	-8.017660141	1.0
4	28.83100128	0	0	-0.05689540878	0.8135533333	-8.000908852	1.0
5	28.83100128	0	0	-0.0570843555	0.8148923516	-8.014172554	1.0
[LeftHandIndex4]
3	23.92700005	0	0	0	0	0	1.0
4	23.92700005	0	0	0	0	0	1.0
5	23.92700005	0	0	0	0	0	1.0
[LeftHandMiddle1]
3	95.33399963	0	0	-0.8048030138	2.57232213	-15.87224579	1.0
4	95.33399963	0	0	-0.8097757697	2.586004257	-15.94529533	1.0
5	95.33399963	0	0	-0.8140130043	2.577773809	-16.00814056	1.0
[LeftHandMiddle2]
3	36.98199844	0	0	-0.2677271664	1.748444319	-17.41010475	1.0
4	36.98199844	0	0	-0.267983824	1.749262929	-17.41852379	1.0
5	36.98199844	0	0	-0.2682429254	1.750091434	-17.42704582	1.0
[LeftHandMiddle3]
3	29.50900078	0	0	-0.2993345857	1.846171141	-18.41781044	1.0
4	29.50900078	0	0	-0.2996039987	1.846982002	-18.42619896	1.0
5	29.50900078	0	0	-0.299880743	1.847812891	-18.4348259	1.0
[LeftHandMiddle4]
3	28.3390007	0	0	0	0	0	1.0
4	28.3390007	0	0	0	0	0	1.0
5	28.3390007	0	0	0	0	0	1.0
[LeftHandRing1]
3	91.04499817	-0.4390000105	-18.65100098	-1.196581602	3.395241261	-21.32092094	1.0
4	91.04499817	-0.4390000105	-18.65100098	-1.202098489	3.382557392	-21.39403725	1.0
5	91.04499817	-0.4390000105	-18.65100098	-1.20609355	3.386353731	-21.4467144	1.0
[LeftHandRing2]
3	31.54000092	0	0	-0.3848462999	2.085330486	-20.91032219	1.0
4	31.54000092	0	0	-0.3855336607	2.087127924	-20.92923355	1.0
5	31.54000092	0	0	-0.3850631416	2.085891724	-20.91627502	1.0
[LeftHandRing3]
3	29.37700081	0	0	-0.2817319334	1.792471766	-17.86339951	1.0
4	29.37700081	0	0	-0.2823243737	1.79430747	-17.88228607	1.0
5	29.37700081	0	0	-0.2819188833	1.793050408	-17.8693161	1.0
[LeftHandRing4]
3	26.47500038	0	0	0	0	0	1.0
4	26.47500038	0	0	0	0	0	1.0
5	26.47500038	0	0	0	0	0	1.0
[LeftHandPinky1]
3	80.77799988	-4.887000084	-38.06099701	-1.764608145	5.146350384	-27.37435722	1.0
4	80.77799988	-4.887000084	-38.06099701	-1.786342621	5.065145969	-27.45482445	1.0
5	80.77799988	-4.887000084	-38.06099701	-1.797060847	5.020181656	-27.48553658	1.0
[LeftHandPinky2]
3	36	0	0	-0.2684807181	1.75081706	-17.43452835	1.0
4	36	0	0	-0.2676652074	1.748234272	-17.40797234	1.0
5	36	0	0	-0.2716915309	1.761033416	-17.53961182	1.0
[LeftHandPinky3]
3	21.14200211	0	0	-0.241535604	1.662623167	-16.5298481	1.0
4	21.14200211	0	0	-0.2407078445	1.659849286	-16.50144005	1.0
5	21.14200211	0	0	-0.2445030212	1.672610879	-16.63202858	1.0
[LeftHandPinky4]
3	19.75699997	0	0	0	0	0	1.0
4	19.75699997	0	0	0	0	0	1.0
5	19.75699997	0	0	0	0	0	1.0
[RightShoulder]
3	-45.70000076	109.4620056	-26.28000069	5.262585163	14.7089386	15.84412766	1.0
4	-45.70000076	109.4620056	-26.28000069	5.28083849	14.7512455	15.92771053	1.0
5	-45.70000076	109.4620056	-26.28000069	5.26224041	14.69645405	15.88005447	1.0
[RightArm]
3	-105.9280014	-5.248000145	-22.32099915	23.05766106	3.47320056	61.48072815	1.0
4	-105.9280014	-5.248000145	-22.32099915	17.23067284	3.404431105	60.87150192	1.0
5	-105.9280014	-5.248000145	-22.32099915	11.09224415	2.67475915	60.40797043	1.0
[RightForeArm]
3	-278.414978	0	0	-9.824130757e-06	8.676951408	-5.677849913e-06	1.0
4	-278.414978	0	0	-1.070439248e-05	10.02159595	1.344576162e-06	1.0
5	-278.414978	0	0	-7.707364603e-06	11.80209541	9.488167962e-06	1.0
[RightHand]
3	-283.2879944	0	0.0009999999311	-14.2277813	4.687891483	2.327860832	1.0
4	-283.2879944	0	0.0009999999311	-8.233830452	6.833787918	0.918808341	1.0
5	-283.2879944	0	0.0009999999311	-1.752078533	9.132267952	-0.1063317135	1.0
[RightHandPinky1]
3	-80.76699829	-4.885000229	-38.06000137	-1.530498028	-4.684669495	26.61487389	1.0
4	-80.76699829	-4.885000229	-38.06000137	-1.532018781	-4.81130743	26.77199173	1.0
5	-80.76699829	-4.885000229	-38.06000137	-1.529070377	-4.994863033	27.00287247	1.0
[RightHandPinky2]
3	-36	0	0.0009999999311	-0.21288535	-1.389280915	17.44316101	1.0
4	-36	0	0.0009999999311	-0.2130241096	-1.389713049	17.44877625	1.0
5	-36	0	0.0009999999311	-0.2134150863	-1.390966177	17.46497726	1.0
[RightHandPinky3]
3	-21.14200211	0	0	-0.1920464486	-1.321038842	16.54198456	1.0
4	-21.14200211	0	0	-0.1921816319	-1.321496129	16.54794693	1.0
5	-21.14200211	0	0	-0.1925652474	-1.322779417	16.56460381	1.0
[RightHandPinky4]
3	-19.75699997	0	0	0	0	0	1.0
4	-19.75699997	0	0	0	0	0	1.0
5	-19.75699997	0	0	0	0	0	1.0
[RightHandRing1]
3	-91.03599548	-0.4390000105	-18.65100098	-1.056832194	-2.919588566	20.65339279	1.0
4	-91.03599548	-0.4390000105	-18.65100098	-1.073847294	-3.009162188	20.9095459	1.0
5	-91.03599548	-0.4390000105	-18.65100098	-1.097628236	-3.128995657	21.26670837	1.0
[RightHandRing2]
3	-31.54000092	0	0	-0.308116585	-1.662483454	20.9985714	1.0
4	-31.54000092	0	0	-0.3086006939	-1.663737416	21.01517487	1.0
5	-31.54000092	0	0	-0.3090231419	-1.664815545	21.02956581	1.0
[RightHandRing3]
3	-29.37700081	0	0	-0.2257658839	-1.429648519	17.94690514	1.0
4	-29.37700081	0	0	-0.2261690944	-1.43089962	17.96319389	1.0
5	-29.37700081	0	0	-0.2265175283	-1.431979775	17.97716713	1.0
[RightHandRing4]
3	-26.47500038	0	0	0	0	0	1.0
4	-26.47500038	0	0	0	0	0	1.0
5	-26.47500038	0	0	0	0	0	1.0
[RightHandMiddle1]
3	-95.32500458	0	0	-0.7143173814	-2.016840696	15.22879696	1.0
4	-95.32500458	0	0	-0.7378503084	-2.155136108	15.61700153	1.0
5	-95.32500458	0	0	-0.7720822692	-2.37489152	16.17895889	1.0
[RightHandMiddle2]
3	-36.98199844	0	0	-0.2137675732	-1.392081022	17.45969963	1.0
4	-36.98199844	0	0	-0.2145931572	-1.39469862	17.49362373	1.0
5	-36.98199844	0	0	-0.2158930451	-1.398808599	17.54687309	1.0
[RightHandMiddle3]
3	-29.50900078	0	0	-0.2389901429	-1.471859336	18.46958351	1.0
4	-29.50900078	0	0	-0.239847064	-1.474419475	18.50296783	1.0
5	-29.50900078	0	0	-0.2411960065	-1.478442788	18.55538559	1.0
[RightHandMiddle4]
3	-28.3390007	0	0.0009999999311	0	0	0	1.0
4	-28.3390007	0	0.0009999999311	0	0	0	1.0
5	-28.3390007	0	0.0009999999311	0	0	0	1.0
[RightHandIndex1]
3	-91.08300018	-5.167999744	22.60099792	0.1793314368	1.237637877	7.013853073	1.0
4	-91.08300018	-5.167999744	22.60099792	0.2000528127	1.128340364	7.346646309	1.0
5	-91.08300018	-5.167999744	22.60099792	0.2250915766	0.9764357805	7.860757351	1.0
[RightHandIndex2]
3	-36.76399994	0	0	-0.212595433	-1.388338089	17.41135216	1.0
4	-36.76399994	0	0	-0.2126779705	-1.388602614	17.41481018	1.0
5	-36.76399994	0	0	-0.2131566703	-1.390128493	17.43448448	1.0
[RightHandIndex3]
3	-28.83100128	0	0	-0.04580516368	-0.6504123807	8.057229042	1.0
4	-28.83100128	0	0	-0.04584556818	-0.6506903172	8.060665131	1.0
5	-28.83100128	0	0	-0.04607198387	-0.6522616744	8.080346107	1.0
[RightHandIndex4]
3	-23.92700005	0	0	0	0	0	1.0
4	-23.92700005	0	0	0	0	0	1.0
5	-23.92700005	0	0	0	0	0	1.0
[RightHandThumb1]
3	-24.64799881	-15.72700024	26.82600021	-1.658462644	-0.289145112	-4.221315384	1.0
4	-24.64799881	-15.72700024	26.82600021	-1.658462644	-0.289145112	-4.221315384	1.0
5	-24.64799881	-15.72700024	26.82600021	-1.658462644	-0.289145112	-4.221315384	1.0
[RightHandThumb2]
3	-32.29800034	-18.64699936	18.64699936	22.19075394	-23.92393303	-24.26589203	1.0
4	-32.29800034	-18.64699936	18.64699936	22.82747269	-23.97347641	-24.51544571	1.0
5	-32.29800034	-18.64699936	18.64699936	23.57991982	-24.10740662	-24.84624481	1.0
[RightHandThumb3]
3	-26.52600098	-15.31399918	15.31399918	-14.49761486	-6.784787178	-11.35848331	1.0
4	-26.52600098	-15.31399918	15.31399918	-14.43642139	-6.396143913	-11.49667645	1.0
5	-26.52600098	-15.31399918	15.31399918	-14.19329357	-5.765656948	-11.77235126	1.0
[RightHandThumb4]
3	-19.54599953	-11.28499985	11.28499985	0	0	0	1.0
4	-19.54599953	-11.28499985	11.28499985	0	0	0	1.0
5	-19.54599953	-11.28499985	11.28499985	0	0	0	1.0
[LeftUpLeg]
3	82.07800293	-67.51699829	-15.99599934	-11.97494125	14.74030399	6.579614639	1.0
4	82.07800293	-67.51699829	-15.99599934	-13.71059322	13.12060928	5.285089493	1.0
5	82.07800293	-67.51699829	-15.99599934	-14.51435947	11.97822857	3.951893806	1.0
[LeftLeg]
3	0	-443.7049866	2.845999956	19.07554817	4.517622471	6.003799915	1.0
4	0	-443.7049866	2.845999956	21.8483696	5.888558388	7.028043747	1.0
5	0	-443.7049866	2.845999956	22.66432571	6.475528717	7.6720047	1.0
[LeftFoot]
3	0	-444.2789917	-29.8219986	-2.255567789	2.321261883	-6.745963573	1.0
4	0	-444.2789917	-29.8219986	-3.779074669	4.261296749	-6.318476677	1.0
5	0	-444.2789917	-29.8219986	-4.434680939	6.767385483	-5.727684975	1.0
[LeftToeBase]
3	0	-87.28699493	107.1060028	-4.928524017	-2.995503564e-06	1.169757837e-07	1.0
4	0	-87.28699493	107.1060028	-4.928528786	-2.952787554e-06	-2.831325503e-07	1.0
5	0	-87.28699493	107.1060028	-4.928529263	-7.189311191e-07	-1.384188977e-06	1.0
[RightUpLeg]
3	-82.07800293	-67.51699829	-15.99599934	-6.335639954	-3.895998478	0.5663033128	1.0
4	-82.07800293	-67.51699829	-15.99599934	-9.254665375	-0.2553585768	-1.772911191	1.0
5	-82.07800293	-67.51699829	-15.99599934	-10.00426197	-1.364536166	-3.41078186	1.0
[RightLeg]
3	0	-443.7049866	2.861999989	18.13764572	-8.64244175	-2.971802235	1.0
4	0	-443.7049866	2.861999989	23.3985672	-10.17392349	-1.892216802	1.0
5	0	-443.7049866	2.861999989	24.81985664	-10.63620567	-0.8591592312	1.0
[RightFoot]
3	0	-444.2770081	-29.83799934	-6.174733162	-5.975539207	4.556413174	1.0
4	0	-444.2770081	-29.83799934	-5.914912224	-11.71011448	4.91105175	1.0
5	0	-444.2770081	-29.83799934	-4.382762909	-16.5416584	3.872467995	1.0
[RightToeBase]
3	0	-87.28699493	107.1060028	-7.336804867	-7.984523108e-06	6.369120911e-07	1.0
4	0	-87.28699493	107.1060028	-7.260679722	-4.801722753e-06	1.044880946e-06	1.0
5	0	-87.28699493	107.1060028	-7.335093498	1.656078553e-06	2.102992909e-07	1.0
[EndOfFile]
